<?xml version="1.0" encoding="UTF-8" standalone="no"?>
<!DOCTYPE svg PUBLIC "-//W3C//DTD SVG 1.1//EN" "http://www.w3.org/Graphics/SVG/1.1/DTD/svg11.dtd">
<svg width="100%" height="100%" viewBox="0 0 17 24" version="1.1" xmlns="http://www.w3.org/2000/svg" xmlns:xlink="http://www.w3.org/1999/xlink" xml:space="preserve" xmlns:serif="http://www.serif.com/" style="fill-rule:evenodd;clip-rule:evenodd;stroke-linejoin:round;stroke-miterlimit:2;">
    <g transform="matrix(1.38216,0,0,1.38216,-8.13772,-4.56787)">
        <path d="M10.663,3.634C9.977,3.806 9.531,4.354 9.463,5.04C9.429,5.486 9.394,5.451 10.217,6.034L11.109,6.651C11.776,7.126 12.438,7.606 13.097,8.091L13.714,8.537L13.851,8.64C13.972,8.739 14.098,8.83 14.229,8.914L14.469,9.086C14.981,9.426 15.484,9.781 15.977,10.149L15.463,9.326C14.492,7.796 13.544,6.253 12.617,4.697L12.171,4.08C11.784,3.674 11.209,3.504 10.663,3.634ZM13.371,4.354C13.166,4.423 12.857,4.594 12.857,4.629L13.337,5.383L15.84,9.497L16.32,10.217C16.565,10.579 16.806,10.945 17.04,11.314L16.937,11.006L16.663,10.046C16.378,9.089 16.104,8.129 15.84,7.166C15.531,6.034 15.291,5.246 15.189,5.109C14.826,4.476 14.076,4.164 13.371,4.354ZM7.474,5.006L7.131,5.143C6.584,5.394 6.231,5.943 6.231,6.545C6.231,6.772 6.281,6.995 6.377,7.2L6.617,7.577C7.629,8.311 8.635,9.054 9.634,9.806L11.28,11.006L13.68,12.72C14.262,13.202 14.599,13.919 14.599,14.674C14.599,16.066 13.454,17.212 12.062,17.212C12.053,17.212 12.044,17.212 12.034,17.211C10.629,17.203 9.478,16.045 9.478,14.64C9.478,14.113 9.64,13.598 9.943,13.166C10.183,12.823 10.251,12.583 10.251,12.24C10.252,12.228 10.252,12.216 10.252,12.204C10.252,11.339 9.54,10.627 8.675,10.627C8.652,10.627 8.629,10.628 8.606,10.629C8.023,10.663 7.611,10.937 7.234,11.52C6.626,12.455 6.301,13.547 6.301,14.663C6.301,17.439 8.308,19.839 11.04,20.331C11.554,20.4 12.514,20.4 12.994,20.331C13.792,20.196 14.552,19.892 15.223,19.44C15.946,18.919 16.553,18.253 17.006,17.486L17.04,17.417L17.211,17.109L17.349,16.8C17.451,16.629 17.623,16.046 17.691,15.703C17.812,15.011 17.812,14.303 17.691,13.611C17.554,12.754 17.006,11.657 16.423,10.971C16.046,10.526 15.84,10.354 15.051,9.806C13.274,8.534 11.503,7.254 9.737,5.966L8.88,5.383C8.64,5.211 8.434,5.074 8.263,5.04C8.091,4.971 7.646,4.971 7.474,5.006ZM15.703,5.794L15.84,6.24L15.977,6.72L15.977,6.823L16.011,6.926C16.461,8.629 16.953,10.321 17.486,12C17.537,12.158 17.582,12.319 17.623,12.48L17.657,12.446L17.554,11.623L17.417,9.703L17.383,9.189L17.349,8.743L17.28,7.783C17.246,7.131 17.246,6.96 17.109,6.754C16.861,6.194 16.315,5.82 15.703,5.794Z" style="fill:white;fill-rule:nonzero;"/>
    </g>
</svg>
