<?xml version="1.0" encoding="UTF-8" standalone="no"?><!DOCTYPE svg PUBLIC "-//W3C//DTD SVG 1.1//EN" "http://www.w3.org/Graphics/SVG/1.1/DTD/svg11.dtd"><svg width="100%" height="100%" viewBox="0 0 512 512" version="1.1" xmlns="http://www.w3.org/2000/svg" xmlns:xlink="http://www.w3.org/1999/xlink" xml:space="preserve" xmlns:serif="http://www.serif.com/" style="fill-rule:evenodd;clip-rule:evenodd;stroke-linejoin:round;stroke-miterlimit:2;"><path d="M454.384,251.487L491.174,268.422C496.507,270.962 499.904,276.384 499.861,282.291L499.861,431.352C499.876,437.294 496.414,442.725 491.021,445.221L376.711,497.804C372.653,499.682 367.967,499.682 363.909,497.804L256,448.117L148.091,497.804C144.033,499.682 139.347,499.682 135.288,497.804L20.978,445.221C15.585,442.725 12.124,437.294 12.138,431.352L12.138,282.291C12.124,276.349 15.585,270.917 20.978,268.422L126.144,219.954L126.144,80.648C126.129,74.706 129.591,69.275 134.984,66.779L249.294,14.196C253.352,12.318 258.038,12.318 262.096,14.196L312.682,37.465L281.958,51.12L281.958,56.616L256,44.679L178.269,80.496L256,116.313L281.958,104.375L281.958,127.801C281.958,131.154 282.068,134.497 282.284,137.825L262.401,146.948C260.711,147.673 258.904,148.086 257.067,148.168L257.067,265.373L322.648,234.823C329.96,243.183 338.091,250.743 346.905,257.308L292.579,282.291L370.462,317.804L448.346,282.291L424.295,271.231C435.069,265.951 445.16,259.284 454.384,251.487ZM240.758,421.445L240.454,305.611L147.786,348.286C145.894,349.265 143.817,349.836 141.69,349.963L141.69,467.169L240.758,421.445ZM141.69,246.322L63.806,282.291L141.69,317.804L219.573,282.139L141.69,246.322ZM469.379,421.445L469.074,305.611L376.406,348.286C374.7,349.187 372.838,349.756 370.92,349.963L370.92,467.169L469.379,421.445Z" style="fill:url(#_Linear1);fill-rule:nonzero;"/><path d="M396.979,27.39L304.368,68.55L304.368,130.291C304.368,187.401 343.882,240.807 396.979,253.773C450.076,240.807 489.59,187.401 489.59,130.291L489.59,68.55L396.979,27.39ZM376.399,192.032L335.238,150.871L349.747,136.362L376.399,162.911L444.211,95.099L458.72,109.711L376.399,192.032Z" style="fill:url(#_Linear2);fill-rule:nonzero;"/><defs><linearGradient id="_Linear1" x1="0" y1="0" x2="1" y2="0" gradientUnits="userSpaceOnUse" gradientTransform="matrix(-512,512,-512,-512,512,0)"><stop offset="0" style="stop-color:#7e4936;stop-opacity:1"/><stop offset="1" style="stop-color:#3b1000;stop-opacity:1"/></linearGradient><linearGradient id="_Linear2" x1="0" y1="0" x2="1" y2="0" gradientUnits="userSpaceOnUse" gradientTransform="matrix(-256,256,-256,-256,512,3.55271e-15)"><stop offset="0" style="stop-color:#4db6ac;stop-opacity:1"/><stop offset="1" style="stop-color:#1a8278;stop-opacity:1"/></linearGradient></defs></svg>